<svg xmlns="http://www.w3.org/2000/svg" viewBox="0 0 89.54 78.32"><g id="Layer_2" data-name="Layer 2"><g id="Layer_1-2" data-name="Layer 1"><path d="M88.54,56.49H82.81s0,0,0,0V24.52a1,1,0,0,0-1-1H68.07V1a1,1,0,0,0-1-1H5.65a1,1,0,0,0-1,1V31.43H1a1,1,0,0,0-1,1V66.62a1,1,0,0,0,1,1H24.61a1,1,0,0,0,1-1V44.88h9.57v3.27H31.9a2.63,2.63,0,0,0-2.62,2.63V75.69a2.63,2.63,0,0,0,2.62,2.63H45.5a2.63,2.63,0,0,0,2.63-2.63V64.24H85.4c2.72,0,4.14-5,4.14-6.75A1,1,0,0,0,88.54,56.49Zm-7.72-31v31H48.13V54H76.82a1,1,0,0,0,1-1V28.53a1,1,0,0,0-1-1H41.17a1,1,0,0,0-1,1V48.15h-3V25.52ZM6.65,2H66.07V23.52H63V6.21a1,1,0,0,0-1-1H10.77a1,1,0,0,0-1,1V31.43H6.65Zm17,63.62H2V61.1H23.61Zm0-6.52H2v-20H23.61Zm0-22H2V33.44H23.61Zm1-5.65H11.77V7.21H61V23.52H36.18a1,1,0,0,0-1,1V37.66H25.61V32.43A1,1,0,0,0,24.61,31.43Zm1,11.45V39.66h9.57v3.22ZM46.13,75.69a.63.63,0,0,1-.63.63H31.9a.63.63,0,0,1-.62-.63V72.44H46.13Zm0-5.25H31.28v-16H46.13Zm0-18H31.28V50.78a.63.63,0,0,1,.62-.63H45.5a.63.63,0,0,1,.63.63Zm-.63-4.27H42.17V29.53H75.82V52H48.13V50.78A2.63,2.63,0,0,0,45.5,48.15ZM85.4,62.24H48.13V58.49H87.42C87.07,60.17,86,62.24,85.4,62.24Z"/><path d="M56.57,61.37h4.86a1,1,0,0,0,0-2H56.57a1,1,0,0,0,0,2Z"/><path d="M26.33,24.2,38.2,13.77a1,1,0,1,0-1.31-1.5L25,22.7a1,1,0,1,0,1.32,1.5Z"/><path d="M32.38,22.72a1,1,0,0,0,.67,1.73,1,1,0,0,0,.68-.26L39.38,19A1,1,0,1,0,38,17.5Z"/><path d="M50.05,46a1,1,0,0,0,.66-.25L62.59,35.35a1,1,0,0,0-1.32-1.5L49.39,44.28A1,1,0,0,0,50.05,46Z"/><path d="M56.76,44.29a1,1,0,0,0-.06,1.42,1,1,0,0,0,.74.32,1,1,0,0,0,.67-.27l5.65-5.21a1,1,0,0,0,.06-1.42,1,1,0,0,0-1.41-.05Z"/><path d="M6.94,52.7a1,1,0,0,0,.57-.18l9.56-6.67a1,1,0,0,0-1.14-1.64L6.37,50.88a1,1,0,0,0,.57,1.82Z"/><path d="M15.93,49.87l-4.16,2.89a1,1,0,0,0-.24,1.39,1,1,0,0,0,.82.43,1,1,0,0,0,.57-.18l4.15-2.89a1,1,0,0,0,.25-1.4A1,1,0,0,0,15.93,49.87Z"/><circle cx="38.7" cy="74.42" r="1.22"/><path d="M35.88,64.24a1,1,0,0,0,.66-.26l5.3-4.73a1,1,0,1,0-1.34-1.49l-5.29,4.73a1,1,0,0,0-.08,1.41A1,1,0,0,0,35.88,64.24Z"/><path d="M38.94,65.24a1,1,0,0,0-.1,1.41,1,1,0,0,0,.76.34,1,1,0,0,0,.66-.25L43.4,64a1,1,0,0,0,.1-1.41,1,1,0,0,0-1.42-.1Z"/></g></g></svg>